<?xml version="1.0" encoding="UTF-8" standalone="no"?>
<svg
   xmlns:dc="http://purl.org/dc/elements/1.1/"
   xmlns:cc="http://creativecommons.org/ns#"
   xmlns:rdf="http://www.w3.org/1999/02/22-rdf-syntax-ns#"
   xmlns:svg="http://www.w3.org/2000/svg"
   xmlns="http://www.w3.org/2000/svg"
   xmlns:sodipodi="http://sodipodi.sourceforge.net/DTD/sodipodi-0.dtd"
   xmlns:inkscape="http://www.inkscape.org/namespaces/inkscape"
   height="212.4pt"
   version="1.1"
   viewBox="0 0 282.96 212.4"
   width="282.96pt"
   id="svg30"
   sodipodi:docname="logo.svg"
   inkscape:version="0.92.3 (2405546, 2018-03-11)">
  <sodipodi:namedview
     pagecolor="#ffffff"
     bordercolor="#666666"
     borderopacity="1"
     objecttolerance="10"
     gridtolerance="10"
     guidetolerance="10"
     inkscape:pageopacity="0"
     inkscape:pageshadow="2"
     inkscape:window-width="3706"
     inkscape:window-height="2276"
     id="namedview32"
     showgrid="false"
     inkscape:zoom="3.3333334"
     inkscape:cx="33.485787"
     inkscape:cy="85.756761"
     inkscape:window-x="134"
     inkscape:window-y="68"
     inkscape:window-maximized="1"
     inkscape:current-layer="figure_1" />
  <metadata
     id="metadata2">
    <rdf:RDF>
      <cc:Work>
        <dc:type
           rdf:resource="http://purl.org/dc/dcmitype/StillImage" />
        <dc:date>2022-05-18T20:53:51.831300</dc:date>
        <dc:format>image/svg+xml</dc:format>
        <dc:creator>
          <cc:Agent>
            <dc:title>Matplotlib v3.4.3, https://matplotlib.org/</dc:title>
          </cc:Agent>
        </dc:creator>
      </cc:Work>
    </rdf:RDF>
  </metadata>
  <defs
     id="defs6">
    <style
       type="text/css"
       id="style4">*{stroke-linecap:butt;stroke-linejoin:round;}</style>
  </defs>
  <g
     id="figure_1">
    <g
       id="patch_1"
       inkscape:export-xdpi="96"
       inkscape:export-ydpi="96">
      <path
         d="M 0 212.4  L 282.96 212.4  L 282.96 0  L 0 0  z "
         style="fill:#ffffff;"
         id="path8" />
    </g>
    <g
       id="axes_1">
      <g
         id="line2d_1">
        <path
           clip-path="url(#pdbcc45bae3)"
           d="M 45.337909 181.602  L 47.331491 178.535406  L 49.325073 175.010883  L 51.318655 171.086079  L 54.309027 164.593419  L 58.296191 155.19773  L 65.273727 138.545576  L 68.2641 132.042016  L 70.257682 128.107674  L 72.251264 124.57201  L 74.244845 121.492889  L 76.238427 118.919246  L 78.232009 116.890123  L 79.2288 116.089061  L 80.225591 115.433908  L 81.222382 114.926456  L 82.219173 114.567776  L 83.215964 114.358207  L 84.212755 114.297358  L 85.209545 114.384112  L 86.206336 114.616627  L 87.203127 114.992348  L 88.199918 115.508017  L 90.1935 116.942766  L 92.187082 118.881481  L 94.180664 121.274906  L 96.174245 124.064888  L 98.167827 127.185514  L 101.1582 132.326651  L 111.126109 150.182584  L 113.119691 153.275067  L 115.113273 156.030401  L 117.106855 158.383351  L 119.100436 160.276556  L 121.094018 161.661651  L 122.090809 162.15124  L 123.0876 162.500214  L 124.084391 162.705447  L 125.081182 162.764518  L 126.077973 162.67572  L 127.074764 162.438071  L 128.071555 162.05132  L 129.068345 161.515944  L 130.065136 160.833148  L 132.058718 159.033722  L 134.0523 156.676936  L 136.045882 153.797587  L 138.039464 150.440701  L 140.033045 146.660647  L 143.023418 140.336136  L 146.013791 133.441877  L 155.9817 109.821989  L 158.972073 103.599165  L 160.965655 99.90478  L 162.959236 96.64595  L 164.952818 93.875125  L 166.9464 91.635206  L 168.939982 89.958706  L 169.936773 89.338896  L 170.933564 88.86711  L 171.930355 88.544244  L 172.927145 88.370462  L 173.923936 88.345199  L 174.920727 88.467161  L 175.917518 88.734336  L 176.914309 89.143997  L 177.9111 89.692721  L 179.904682 91.190283  L 181.898264 93.186399  L 183.891845 95.630689  L 185.885427 98.464006  L 187.879009 101.619589  L 190.869382 106.796003  L 199.8405 122.974562  L 201.834082 126.176612  L 203.827664 129.068098  L 205.821245 131.581121  L 207.814827 133.655188  L 209.808409 135.238395  L 210.8052 135.832308  L 211.801991 136.288442  L 212.798782 136.603147  L 213.795573 136.773465  L 214.792364 136.797144  L 215.789155 136.672653  L 216.785945 136.399184  L 217.782736 135.97666  L 218.779527 135.405735  L 219.776318 134.687788  L 221.7699 132.819937  L 223.763482 130.398341  L 225.757064 127.459066  L 227.750645 124.048308  L 229.744227 120.221492  L 232.7346 113.842128  L 236.721764 104.527369  L 244.696091 85.544531  L 244.696091 85.544531  "
           style="fill:none;stroke:#9558b2;stroke-linecap:square;stroke-width:4;"
           id="path11" />
      </g>
      <g
         id="line2d_2">
        <path
           clip-path="url(#pdbcc45bae3)"
           d="M 45.337909 164.104083  L 47.331491 161.213332  L 49.325073 157.84618  L 51.318655 154.057197  L 54.309027 147.722176  L 57.2994 140.821265  L 67.267309 117.209444  L 70.257682 110.997701  L 72.251264 107.312578  L 74.244845 104.064302  L 76.238427 101.305117  L 78.232009 99.077697  L 80.225591 97.414308  L 81.222382 96.801204  L 82.219173 96.336182  L 83.215964 96.020101  L 84.212755 95.853096  L 85.209545 95.834565  L 86.206336 95.963184  L 87.203127 96.236907  L 88.199918 96.652975  L 89.196709 97.207935  L 91.190291 98.717331  L 93.183873 100.724239  L 95.177455 103.178069  L 97.171036 106.019487  L 100.161409 110.8602  L 104.148573 117.997831  L 110.129318 128.845256  L 113.119691 133.733123  L 115.113273 136.616728  L 117.106855 139.120406  L 119.100436 141.183847  L 121.094018 142.755355  L 122.090809 143.343087  L 123.0876 143.79286  L 124.084391 144.101054  L 125.081182 144.264742  L 126.077973 144.281707  L 127.074764 144.150448  L 128.071555 143.870193  L 129.068345 143.440896  L 130.065136 142.863246  L 131.061927 142.138653  L 133.055509 140.257881  L 135.049091 137.824066  L 137.042673 134.873512  L 139.036255 131.45264  L 141.029836 127.617068  L 144.020209 121.227488  L 148.007373 111.905209  L 155.9817 92.929765  L 158.972073 86.540185  L 160.965655 82.704614  L 162.959236 79.283741  L 164.952818 76.333188  L 166.9464 73.899372  L 168.939982 72.018601  L 169.936773 71.294008  L 170.933564 70.716357  L 171.930355 70.287061  L 172.927145 70.006805  L 173.923936 69.875547  L 174.920727 69.892512  L 175.917518 70.0562  L 176.914309 70.364393  L 177.9111 70.814166  L 178.907891 71.401899  L 180.901473 72.973407  L 182.895055 75.036848  L 184.888636 77.540526  L 186.882218 80.42413  L 189.872591 85.311998  L 193.859755 92.479409  L 199.8405 103.297053  L 202.830873 108.137766  L 204.824455 110.979184  L 206.818036 113.433015  L 208.811618 115.439923  L 210.8052 116.949318  L 211.801991 117.504278  L 212.798782 117.920347  L 213.795573 118.194069  L 214.792364 118.322688  L 215.789155 118.304158  L 216.785945 118.137152  L 217.782736 117.821072  L 218.779527 117.356049  L 219.776318 116.742945  L 220.773109 115.983346  L 222.766691 114.034586  L 224.760273 111.536582  L 226.753855 108.526898  L 228.747436 105.053108  L 230.741018 101.171869  L 233.731391 94.729292  L 237.718555 85.368687  L 244.696091 68.685192  L 244.696091 68.685192  "
           style="fill:none;stroke:#389826;stroke-linecap:square;stroke-width:4;"
           id="path14" />
      </g>
      <g
         id="line2d_3">
        <path
           clip-path="url(#pdbcc45bae3)"
           d="M 45.337909 146.539534  L 47.331491 143.830404  L 49.325073 140.627594  L 51.318655 136.982457  L 53.312236 132.955003  L 56.302609 126.346336  L 60.289773 116.874229  L 66.270518 102.576414  L 69.260891 95.985613  L 71.254473 91.974142  L 73.248055 88.347891  L 75.241636 85.1665  L 77.235218 82.480903  L 79.2288 80.332335  L 81.222382 78.751519  L 82.219173 78.180593  L 83.215964 77.75807  L 84.212755 77.484601  L 85.209545 77.36011  L 86.206336 77.383789  L 87.203127 77.554106  L 88.199918 77.868811  L 89.196709 78.324946  L 90.1935 78.918859  L 92.187082 80.502065  L 94.180664 82.576132  L 96.174245 85.089155  L 98.167827 87.980641  L 101.1582 92.877258  L 105.145364 100.050046  L 111.126109 110.861649  L 114.116482 115.693247  L 116.110064 118.526564  L 118.103645 120.970855  L 120.097227 122.96697  L 122.090809 124.464532  L 123.0876 125.013257  L 124.084391 125.422918  L 125.081182 125.690092  L 126.077973 125.812055  L 127.074764 125.786791  L 128.071555 125.613009  L 129.068345 125.290143  L 130.065136 124.818358  L 131.061927 124.198548  L 132.058718 123.432332  L 134.0523 121.470735  L 136.045882 118.960633  L 138.039464 115.939824  L 140.033045 112.456101  L 142.026627 108.566316  L 145.017 102.113876  L 149.004164 92.746273  L 155.9817 76.068568  L 158.972073 69.526035  L 160.965655 65.557418  L 162.959236 61.981608  L 164.952818 58.857255  L 166.9464 56.23418  L 168.939982 54.152393  L 169.936773 53.324106  L 170.933564 52.64131  L 171.930355 52.105934  L 172.927145 51.719182  L 173.923936 51.481534  L 174.920727 51.392736  L 175.917518 51.451806  L 176.914309 51.657039  L 177.9111 52.006013  L 178.907891 52.495602  L 179.904682 53.121992  L 181.898264 54.766586  L 183.891845 56.896296  L 185.885427 59.458129  L 187.879009 62.390635  L 190.869382 67.332469  L 194.856545 74.532238  L 199.8405 83.592852  L 202.830873 88.568994  L 204.824455 91.532974  L 206.818036 94.13246  L 208.811618 96.305268  L 210.8052 97.997561  L 211.801991 98.649237  L 212.798782 99.164906  L 213.795573 99.540626  L 214.792364 99.773141  L 215.789155 99.859895  L 216.785945 99.799047  L 217.782736 99.589478  L 218.779527 99.230797  L 219.776318 98.723346  L 220.773109 98.068193  L 221.7699 97.26713  L 223.763482 95.238007  L 225.757064 92.664364  L 227.750645 89.585244  L 229.744227 86.049579  L 231.737809 82.115238  L 234.728182 75.611677  L 238.715345 66.208509  L 244.696091 51.853144  L 244.696091 51.853144  "
           style="fill:none;stroke:#4063d8;stroke-linecap:square;stroke-width:4;"
           id="path17" />
      </g>
      <g
         id="line2d_4">
        <path
           clip-path="url(#pdbcc45bae3)"
           d="M 45.337909 128.9066  L 47.331491 126.384418  L 49.325073 123.352509  L 51.318655 119.858884  L 53.312236 115.960585  L 56.302609 109.49834  L 60.289773 100.123821  L 67.267309 83.452056  L 70.257682 76.918847  L 72.251264 72.958457  L 74.244845 69.392298  L 76.238427 66.278832  L 78.232009 63.667667  L 80.225591 61.598578  L 81.222382 60.77686  L 82.219173 60.100736  L 83.215964 59.572102  L 84.212755 59.192131  L 85.209545 58.961266  L 86.206336 58.879224  L 87.203127 58.944988  L 88.199918 59.156819  L 89.196709 59.512265  L 90.1935 60.008167  L 91.190291 60.64068  L 93.183873 62.296833  L 95.177455 64.436998  L 97.171036 67.007978  L 99.164618 69.948144  L 102.154991 74.898359  L 106.142155 82.102972  L 111.126109 91.159041  L 114.116482 96.126989  L 116.110064 99.083421  L 118.103645 101.673862  L 120.097227 103.836301  L 122.090809 105.517107  L 123.0876 106.162689  L 124.084391 106.67207  L 125.081182 107.04134  L 126.077973 107.267272  L 127.074764 107.347344  L 128.071555 107.279747  L 129.068345 107.063395  L 130.065136 106.697932  L 131.061927 106.183731  L 132.058718 105.521894  L 133.055509 104.714246  L 135.049091 102.672377  L 137.042673 100.08676  L 139.036255 96.996673  L 141.029836 93.451262  L 143.023418 89.508587  L 146.013791 82.995522  L 150.000955 73.585878  L 156.978491 56.947927  L 159.968864 50.464894  L 161.962445 46.548497  L 163.956027 43.033783  L 165.949609 39.978211  L 167.943191 37.430253  L 169.936773 35.428449  L 170.933564 34.641492  L 171.930355 34.000651  L 172.927145 33.507648  L 173.923936 33.16348  L 174.920727 32.968418  L 175.917518 32.922  L 176.914309 33.023037  L 177.9111 33.269617  L 178.907891 33.659116  L 179.904682 34.18821  L 181.898264 35.648486  L 183.891845 37.610551  L 185.885427 40.024693  L 187.879009 42.832353  L 189.872591 45.967273  L 192.862964 51.122912  L 202.830873 68.962519  L 204.824455 72.040206  L 206.818036 74.777405  L 208.811618 77.109236  L 210.8052 78.978751  L 212.798782 80.338049  L 213.795573 80.814105  L 214.792364 81.149212  L 215.789155 81.34031  L 216.785945 81.385049  L 217.782736 81.281791  L 218.779527 81.029626  L 219.776318 80.628373  L 220.773109 80.078581  L 221.7699 79.381525  L 223.763482 77.554325  L 225.757064 75.171211  L 227.750645 72.267496  L 229.744227 68.888681  L 231.737809 65.089565  L 234.728182 58.742636  L 237.718555 51.834221  L 244.696091 35.044802  L 244.696091 35.044802  "
           style="fill:none;stroke:#cb3c33;stroke-linecap:square;stroke-width:4;"
           id="path20" />
      </g>
    </g>
  </g>
  <defs
     id="defs28">
    <clipPath
       id="pdbcc45bae3">
      <rect
         height="163.548"
         width="219.294"
         x="35.37"
         y="25.488"
         id="rect25" />
    </clipPath>
  </defs>
  <path
     sodipodi:type="star"
     style="opacity:1;fill:#9558b2;fill-opacity:1;stroke-width:1.41732287;stroke-linecap:butt;stroke-linejoin:round"
     id="path839"
     sodipodi:sides="5"
     sodipodi:cx="245.82109"
     sodipodi:cy="83.644806"
     sodipodi:r1="12.299221"
     sodipodi:r2="6.1496105"
     sodipodi:arg1="-0.7374252"
     sodipodi:arg2="-0.10910666"
     inkscape:flatsided="false"
     inkscape:rounded="0"
     inkscape:randomized="0"
     d="m 254.925,75.375003 -2.99087,7.60017 4.56527,6.772457 -8.15242,-0.495902 -5.03024,6.434634 -2.0476,-7.906655 -7.67414,-2.795635 6.88693,-4.390678 0.28737,-8.162432 6.30397,5.193066 z"
     inkscape:transform-center-x="0.7790522"
     inkscape:transform-center-y="-0.40861183"
     transform="rotate(12.423195,-299.68655,-786.76603)" />
  <path
     sodipodi:type="star"
     style="opacity:1;fill:#389826;fill-opacity:1;stroke-width:1.41732287;stroke-linecap:butt;stroke-linejoin:round"
     id="path839-3"
     sodipodi:sides="5"
     sodipodi:cx="245.82109"
     sodipodi:cy="83.644806"
     sodipodi:r1="12.299221"
     sodipodi:r2="6.1496105"
     sodipodi:arg1="-0.7374252"
     sodipodi:arg2="-0.10910666"
     inkscape:flatsided="false"
     inkscape:rounded="0"
     inkscape:randomized="0"
     d="m 254.925,75.375003 -2.99087,7.60017 4.56527,6.772457 -8.15242,-0.495902 -5.03024,6.434634 -2.0476,-7.906655 -7.67414,-2.795635 6.88693,-4.390678 0.28737,-8.162432 6.30397,5.193066 z"
     inkscape:transform-center-x="-12.353697"
     inkscape:transform-center-y="19.879057"
     transform="rotate(-14.820869,193.74631,84.298723)" />
  <path
     sodipodi:type="star"
     style="opacity:1;fill:#cb3c33;fill-opacity:1;stroke-width:1.41732287;stroke-linecap:butt;stroke-linejoin:round"
     id="path839-3-6"
     sodipodi:sides="5"
     sodipodi:cx="245.82109"
     sodipodi:cy="83.644806"
     sodipodi:r1="12.299221"
     sodipodi:r2="6.1496105"
     sodipodi:arg1="-0.7374252"
     sodipodi:arg2="-0.10910666"
     inkscape:flatsided="false"
     inkscape:rounded="0"
     inkscape:randomized="0"
     d="m 254.925,75.375003 -2.99087,7.60017 4.56527,6.772457 -8.15242,-0.495902 -5.03024,6.434634 -2.0476,-7.906655 -7.67414,-2.795635 6.88693,-4.390678 0.28737,-8.162432 6.30397,5.193066 z"
     inkscape:transform-center-x="-12.353697"
     inkscape:transform-center-y="19.879057"
     transform="rotate(-14.820869,61.328638,60.91894)" />
  <path
     sodipodi:type="star"
     style="opacity:1;fill:#4063d8;fill-opacity:1;stroke-width:1.41732287;stroke-linecap:butt;stroke-linejoin:round"
     id="path839-3-6-7"
     sodipodi:sides="5"
     sodipodi:cx="245.82109"
     sodipodi:cy="83.644806"
     sodipodi:r1="12.299221"
     sodipodi:r2="6.1496105"
     sodipodi:arg1="-0.7374252"
     sodipodi:arg2="-0.10910666"
     inkscape:flatsided="false"
     inkscape:rounded="0"
     inkscape:randomized="0"
     d="m 254.925,75.375003 -2.99087,7.60017 4.56527,6.772457 -8.15242,-0.495902 -5.03024,6.434634 -2.0476,-7.906655 -7.67414,-2.795635 6.88693,-4.390678 0.28737,-8.162432 6.30397,5.193066 z"
     inkscape:transform-center-x="-3.1975806"
     inkscape:transform-center-y="22.010495"
     transform="rotate(6.7807722,-363.39099,-1569.4155)" />
</svg>
